# Vectary OBJ Export units=mm
mtllib Project Name.mtl
o 000_3D_Text_-_<
g 3D_Text_-_<
usemtl 3D Text material_b1745f99-56d7-4b2e-917a-782e4725368d
v -29.125 16.550 0.000
v -33.575 17.350 0.000
v -9.475 29.650 0.000
v -9.475 26.700 0.000
v -9.475 6.350 0.000
v -9.475 3.450 0.000
v -33.575 15.750 0.000
v -33.575 17.350 15.000
v -29.125 16.550 15.000
v -9.475 26.700 15.000
v -9.475 29.650 15.000
v -9.475 3.450 15.000
v -9.475 6.350 15.000
v -33.575 15.750 15.000
vn 0.00000 0.00000 -1.00000
vn -0.00000 0.00000 -1.00000
vn 0.00000 0.00000 -1.00000
vn 0.00000 0.00000 -1.00000
vn 0.00000 0.00000 -1.00000
vn -0.00000 0.00000 -1.00000
vn 0.00000 0.00000 -1.00000
vn 0.00000 0.00000 -1.00000
vn 0.00000 -0.00000 1.00000
vn 0.00000 -0.00000 1.00000
vn 0.00000 -0.00000 1.00000
vn 0.00000 -0.00000 1.00000
vn 0.00000 -0.00000 1.00000
vn 0.00000 -0.00000 1.00000
vn 0.00000 -0.00000 1.00000
vn 0.00000 -0.00000 1.00000
vn -1.00000 0.00000 0.00000
vn -1.00000 0.00000 0.00000
vn -1.00000 0.00000 0.00000
vn -1.00000 0.00000 0.00000
vn -0.45459 0.89070 0.00000
vn -0.45459 0.89070 0.00000
vn -0.45459 0.89070 0.00000
vn -0.45459 0.89070 0.00000
vn 0.45893 -0.88847 -0.00000
vn 0.45893 -0.88847 -0.00000
vn 0.45893 -0.88847 -0.00000
vn 0.45893 -0.88847 -0.00000
vn 1.00000 0.00000 0.00000
vn 1.00000 0.00000 0.00000
vn 1.00000 0.00000 0.00000
vn 1.00000 0.00000 0.00000
vn -0.45459 -0.89070 -0.00000
vn -0.45459 -0.89070 -0.00000
vn -0.45459 -0.89070 -0.00000
vn -0.45459 -0.89070 -0.00000
vn 1.00000 0.00000 0.00000
vn 1.00000 0.00000 0.00000
vn 1.00000 0.00000 0.00000
vn 1.00000 0.00000 0.00000
vn 0.46071 0.88755 0.00000
vn 0.46071 0.88755 0.00000
vn 0.46071 0.88755 0.00000
vn 0.46071 0.88755 0.00000
vn -0.00000 0.00000 -1.00000
vn -0.00000 0.00000 -1.00000
vn -0.00000 0.00000 -1.00000
vn 0.00000 -0.00000 1.00000
vn 0.00000 -0.00000 1.00000
vn 0.00000 -0.00000 1.00000
f 2//2 3//3 4//4 1//1 
f 6//6 7//7 1//8 5//5 
f 9//10 10//11 11//12 8//9 
f 13//14 9//15 14//16 12//13 
f 14//18 8//19 2//20 7//17 
f 8//22 11//23 3//24 2//21 
f 10//26 9//27 1//28 4//25 
f 11//30 10//31 4//32 3//29 
f 12//34 14//35 7//36 6//33 
f 13//38 12//39 6//40 5//37 
f 9//42 13//43 5//44 1//41 
f 2//45 1//46 7//47 
f 14//48 9//49 8//50 
o 001_3D_Text_-_/
g 3D_Text_-_/
usemtl 3D Text material_b1745f99-56d7-4b2e-917a-782e4725368d
v 7.265 35.300 0.000
v -5.835 0.000 0.000
v -8.285 0.000 0.000
v 4.765 35.300 0.000
v -5.835 -0.000 15.000
v 7.265 35.300 15.000
v 4.765 35.300 15.000
v -8.285 -0.000 15.000
vn 0.00000 0.00000 -1.00000
vn 0.00000 0.00000 -1.00000
vn 0.00000 0.00000 -1.00000
vn 0.00000 0.00000 -1.00000
vn 0.00000 -0.00000 1.00000
vn 0.00000 -0.00000 1.00000
vn 0.00000 -0.00000 1.00000
vn 0.00000 -0.00000 1.00000
vn 0.00000 -1.00000 -0.00000
vn 0.00000 -1.00000 -0.00000
vn 0.00000 -1.00000 -0.00000
vn 0.00000 -1.00000 -0.00000
vn 0.93752 -0.34792 -0.00000
vn 0.93752 -0.34792 -0.00000
vn 0.93752 -0.34792 -0.00000
vn 0.93752 -0.34792 -0.00000
vn 0.00000 1.00000 0.00000
vn 0.00000 1.00000 0.00000
vn 0.00000 1.00000 0.00000
vn 0.00000 1.00000 0.00000
vn -0.93796 0.34675 0.00000
vn -0.93796 0.34675 0.00000
vn -0.93796 0.34675 0.00000
vn -0.93796 0.34675 0.00000
f 16//52 17//53 18//54 15//51 
f 20//56 21//57 22//58 19//55 
f 19//60 22//61 17//62 16//59 
f 20//64 19//65 16//66 15//63 
f 21//68 20//69 15//70 18//67 
f 22//72 21//73 18//74 17//71 
o 002_3D_Text_-_>
g 3D_Text_-_>
usemtl 3D Text material_b1745f99-56d7-4b2e-917a-782e4725368d
v 33.575 17.350 0.000
v 29.025 16.550 0.000
v 9.375 26.700 0.000
v 9.375 29.650 0.000
v 33.575 15.750 0.000
v 9.375 3.450 0.000
v 9.375 6.350 0.000
v 29.025 16.550 15.000
v 33.575 17.350 15.000
v 9.375 29.650 15.000
v 9.375 26.700 15.000
v 33.575 15.750 15.000
v 9.375 6.350 15.000
v 9.375 3.450 15.000
vn -0.00000 0.00000 -1.00000
vn 0.00000 0.00000 -1.00000
vn -0.00000 0.00000 -1.00000
vn -0.00000 0.00000 -1.00000
vn 0.00000 0.00000 -1.00000
vn -0.00000 0.00000 -1.00000
vn 0.00000 0.00000 -1.00000
vn 0.00000 0.00000 -1.00000
vn 0.00000 -0.00000 1.00000
vn 0.00000 -0.00000 1.00000
vn 0.00000 -0.00000 1.00000
vn 0.00000 -0.00000 1.00000
vn 0.00000 -0.00000 1.00000
vn 0.00000 -0.00000 1.00000
vn 0.00000 -0.00000 1.00000
vn 0.00000 -0.00000 1.00000
vn 1.00000 0.00000 0.00000
vn 1.00000 0.00000 0.00000
vn 1.00000 0.00000 0.00000
vn 1.00000 0.00000 0.00000
vn -0.45893 -0.88847 -0.00000
vn -0.45893 -0.88847 -0.00000
vn -0.45893 -0.88847 -0.00000
vn -0.45893 -0.88847 -0.00000
vn 0.45310 0.89146 0.00000
vn 0.45310 0.89146 0.00000
vn 0.45310 0.89146 0.00000
vn 0.45310 0.89146 0.00000
vn -1.00000 0.00000 0.00000
vn -1.00000 0.00000 0.00000
vn -1.00000 0.00000 0.00000
vn -1.00000 0.00000 0.00000
vn 0.45310 -0.89146 -0.00000
vn 0.45310 -0.89146 -0.00000
vn 0.45310 -0.89146 -0.00000
vn 0.45310 -0.89146 -0.00000
vn -0.46071 0.88755 0.00000
vn -0.46071 0.88755 0.00000
vn -0.46071 0.88755 0.00000
vn -0.46071 0.88755 0.00000
vn -1.00000 0.00000 0.00000
vn -1.00000 0.00000 0.00000
vn -1.00000 0.00000 0.00000
vn -1.00000 0.00000 0.00000
vn 0.00000 0.00000 -1.00000
vn 0.00000 0.00000 -1.00000
vn 0.00000 0.00000 -1.00000
vn 0.00000 -0.00000 1.00000
vn 0.00000 -0.00000 1.00000
vn 0.00000 -0.00000 1.00000
f 24//76 25//77 26//78 23//75 
f 27//80 28//81 29//82 24//79 
f 31//84 32//85 33//86 30//83 
f 30//88 35//89 36//90 34//87 
f 31//92 34//93 27//94 23//91 
f 30//96 33//97 25//98 24//95 
f 32//100 31//101 23//102 26//99 
f 33//104 32//105 26//106 25//103 
f 34//108 36//109 28//110 27//107 
f 35//112 30//113 24//114 29//111 
f 36//116 35//117 29//118 28//115 
f 24//119 23//120 27//121 
f 34//122 31//123 30//124 
